<svg id="Layer_1" data-name="Layer 1" xmlns="http://www.w3.org/2000/svg" viewBox="0 0 200 132.34">
  <defs fill="#ffffff">
    <style>
      .cls-1 {
        fill: #ffffff;
      }
    </style>
  </defs>
  <path class="cls-1" d="m196.72,98.25c-7.43,10.34-14.3,17.29-20.55,20.76-6.18,3.47-13.4,5.21-21.52,5.21-9.37,0-17.7-2.22-24.99-6.66-7.29-4.44-12.77-10.76-16.38-19.09-3.68-8.33-5.48-18.19-5.48-29.5,0-13.74,1.94-25.2,5.76-34.5,3.89-9.23,9.16-15.97,15.9-20.2,6.66-4.16,14.23-6.32,22.56-6.32,9.86,0,18.4,2.85,25.48,8.4,7.08,5.62,12.56,14.79,16.38,27.56.15.69.77,1.18,1.46,1.16.67-.02,1.25-.5,1.39-1.16-.95-14.21-1.9-28.42-2.85-42.62-.21-.78-.93-1.31-1.71-1.27-.73.03-1.36.55-1.55,1.27-.1.43-1.17,4.84-3.4,6.94-1.25,1.18-2.71,1.74-4.37,1.74-1.11,0-2.92-.62-5.55-2.01-8.82-4.44-17.7-6.66-26.8-6.66-11.66,0-22.35,2.92-32.21,8.68-6.25,3.68-11.66,8.33-16.24,13.88-1.11-2.98-2.71-5.76-4.86-8.26-4.65-5.48-10.27-9.16-16.87-11.25-6.59-2.01-16.87-3.05-30.75-3.05H1.8c-.89.16-1.54.94-1.53,1.83.01.87.66,1.62,1.53,1.78h4.93c4.93,0,8.68,1.39,11.18,4.23,1.8,2.01,2.71,7.15,2.71,15.41v84.62c0,7.5-.62,12.22-2.01,14.23-2.36,3.61-6.32,5.41-11.87,5.41H1.8c-1.01,0-1.82.84-1.8,1.82.02.94.82,1.73,1.8,1.72h56.16c.9-.1,1.59-.87,1.59-1.78,0-.9-.69-1.66-1.59-1.76h-5.14c-4.86,0-8.54-1.46-11.04-4.23-1.8-2.01-2.71-7.15-2.71-15.41v-38.04c1.04.07,2.08.07,3.05.14h2.77c5.04,0,9.77,2.42,12.73,6.5l9.45,13.05c18.91,26.09,49.18,41.54,81.4,41.54h0c11.18-.14,20.96-2.71,29.09-7.71,8.4-5.21,15.76-13.4,22.01-24.5.68-.84.51-2.02-.19-2.56-.76-.59-2.09-.36-2.66.69ZM44.49,65.07h-2.22c-.9-.07-1.94-.07-3.19-.07V19.87c0-5.63,4.33-10.33,9.93-10.93,1.98-.21,3.74-.31,5.27-.31,8.47,0,15.2,2.57,20.34,7.71s7.71,11.73,7.71,19.92-3.19,15.27-9.51,20.69c-6.39,5.41-15.83,8.12-28.32,8.12Zm28.94,5.78c-.8-1.11-.19-2.64,1.13-2.98,4.72-1.24,8.86-2.82,12.41-4.74-.14,1.87-.21,3.75-.21,5.62,0,10.55,1.94,20.2,5.9,28.88l-19.24-26.78Z" fill="#ffffff"/>
</svg>